<?xml version="1.0" standalone="no"?>
<!DOCTYPE svg PUBLIC "-//W3C//DTD SVG 20010904//EN"
 "http://www.w3.org/TR/2001/REC-SVG-20010904/DTD/svg10.dtd">
<svg version="1.0" xmlns="http://www.w3.org/2000/svg"
 width="700.000000pt" height="700.000000pt" viewBox="0 0 700.000000 700.000000"
 preserveAspectRatio="xMidYMid meet">
<metadata>
Created by potrace 1.11, written by Peter Selinger 2001-2013
</metadata>
<g transform="translate(0.000000,700.000000) scale(0.100000,-0.100000)"
fill="#000000" stroke="none">
<path d="M3448 6409 c-71 -11 -2424 -1334 -2489 -1399 -85 -87 -79 32 -79
-1510 0 -1516 -4 -1416 66 -1499 20 -23 54 -52 77 -65 23 -13 568 -320 1211
-681 918 -516 1179 -658 1217 -664 106 -17 71 -35 1315 664 643 361 1188 668
1211 681 23 13 57 42 77 65 70 83 66 -17 66 1499 0 1530 5 1420 -73 1505 -35
37 -245 159 -1227 711 -652 367 -1198 672 -1215 679 -42 17 -101 23 -157 14z
m-683 -1877 c217 -48 348 -126 446 -265 96 -136 133 -346 95 -538 -37 -189
-157 -348 -328 -435 -26 -13 -48 -26 -48 -29 0 -3 106 -204 235 -448 129 -244
235 -451 235 -461 0 -14 -24 -16 -243 -16 l-242 0 -206 403 -207 402 -181 3
-181 2 0 -405 0 -405 -230 0 -230 0 0 1111 0 1111 498 -5 c451 -4 505 -6 587
-25z m1215 -422 l0 -450 445 0 445 0 0 450 0 450 225 0 225 0 0 -1110 0 -1110
-225 0 -225 0 0 475 0 475 -445 0 -445 0 0 -475 0 -475 -230 0 -230 0 0 1110
0 1110 230 0 230 0 0 -450z"/>
<path d="M2140 3856 l0 -336 193 0 c292 0 372 21 456 116 56 64 75 131 69 244
-6 104 -35 168 -102 227 -72 63 -123 74 -388 80 l-228 6 0 -337z"/>
</g>
</svg>
