<svg xmlns="http://www.w3.org/2000/svg" xmlns:xlink="http://www.w3.org/1999/xlink" version="1.1" width="24" height="24" viewBox="0 0 24 24"><path d="M15.472 22.416l-6.777.054-5.514-3.939-2.145-6.428 2.042-6.46 5.45-4.028 6.777-.054 5.514 3.94 2.145 6.427-2.042 6.461z M14.795 8.088c-.826 0-1.461.276-1.902.824-.438.549-.657 1.351-.657 2.41v1.397c.01 1.017.235 1.798.672 2.344s1.07.818 1.897.818c.837 0 1.472-.278 1.906-.834.434-.556.65-1.358.65-2.406v-1.397c-.01-1.017-.234-1.796-.671-2.338-.438-.545-1.069-.818-1.895-.818zm-4.328.027c-.767.004-1.444.178-2.027.526a3.417 3.417 0 00-1.338 1.463c-.31.628-.463 1.354-.463 2.177v.541c0 .927.245 1.67.734 2.225.493.555 1.14.834 1.938.834.493 0 .933-.112 1.322-.334.392-.222.694-.532.906-.932.216-.4.323-.847.323-1.34 0-.77-.194-1.39-.583-1.863s-.914-.709-1.574-.709c-.614 0-1.122.206-1.525.615.083-.61.33-1.09.744-1.433.417-.344.966-.521 1.647-.531h.146V8.115h-.25zm4.328 1.192c.365 0 .63.145.8.433.174.285.262.74.262 1.37v1.802c-.006.594-.092 1.034-.255 1.322-.164.289-.43.432-.797.432-.372 0-.643-.149-.813-.447-.166-.302-.25-.763-.25-1.381v-1.844c.01-.58.1-1.005.266-1.275.17-.275.433-.413.787-.413zm-5.547 2.605c.34 0 .611.126.813.38.201.253.3.586.3 1 0 .405-.099.738-.3.995a.942.942 0 01-.782.38c-.357 0-.636-.142-.834-.423-.198-.285-.297-.678-.297-1.181v-.46c.094-.208.24-.374.438-.5a1.19 1.19 0 01.662-.19z"/></svg>