<svg xmlns="http://www.w3.org/2000/svg" xmlns:xlink="http://www.w3.org/1999/xlink" version="1.1" height="24" width="24" viewBox="0 0 24 24"><path d="M21 12a9 9 0 01-9 9 9 9 0 01-9-9 9 9 0 019-9 9 9 0 019 9z M11.816 8.594c-.383 0-.725.082-1.027.246a1.748 1.748 0 00-.703.672 1.876 1.876 0 00-.247.949h1.133c0-.286.073-.517.219-.691a.748.748 0 01.606-.266c.236 0 .419.073.546.219.128.143.192.34.192.593 0 .185-.061.38-.184.586-.12.206-.306.447-.558.723l-1.84 1.961v.773h3.898v-.91h-2.445l1.293-1.363c.354-.388.604-.728.75-1.02.146-.291.219-.578.219-.859 0-.513-.163-.91-.489-1.191-.323-.282-.777-.422-1.363-.422zm4.133 0c-.62 0-1.095.206-1.426.617-.328.411-.492 1.014-.492 1.809v1.046c.008.764.176 1.35.504 1.758s.802.614 1.422.614c.627 0 1.104-.209 1.43-.625s.488-1.019.488-1.805V10.96c-.008-.763-.176-1.348-.504-1.754-.328-.409-.802-.613-1.422-.613zm-7.469.07l-2.356.844v.918l1.348-.418v4.351h1.13V8.664H8.48zm7.469.844c.273 0 .474.108.601.324.13.214.196.556.196 1.027v1.352c-.006.445-.07.776-.192.992-.122.216-.321.324-.597.324-.28 0-.482-.112-.61-.336-.125-.226-.187-.571-.187-1.035v-1.383c.008-.434.074-.753.199-.957.128-.205.324-.308.59-.308z"/></svg>