<svg xmlns="http://www.w3.org/2000/svg" xmlns:xlink="http://www.w3.org/1999/xlink" version="1.1" height="24" width="24" viewBox="0 0 24 24"><path d="M18.117 18.61L11.651 21 5.39 18.117 3 11.651 5.883 5.39 12.349 3l6.262 2.883L21 12.349z M9.748 9.057c-.405 0-.766.084-1.086.252a1.818 1.818 0 00-1.004 1.654h1.2c0-.293.076-.527.23-.705.157-.181.37-.272.64-.272.251 0 .444.074.579.223.135.146.203.35.203.607 0 .19-.066.388-.196.598-.126.21-.322.457-.59.738L7.78 14.154v.79H11.9v-.93H9.314l1.368-1.391c.374-.396.64-.743.795-1.041.154-.298.23-.592.23-.879 0-.524-.171-.928-.516-1.215-.341-.287-.823-.431-1.443-.431zm4.705.08l-2.508 3.824.055.726h2.467v1.256h1.193v-1.255h.682v-.93h-.682V9.137h-1.207zm.014 1.57v2.05h-1.332l1.252-1.917.08-.133z"/></svg>