<svg xmlns="http://www.w3.org/2000/svg" xmlns:xlink="http://www.w3.org/1999/xlink" version="1.1" width="24" height="24" viewBox="0 0 24 24"><path d="M12.645 2.269l9.087 9.086a.911.911 0 010 1.29l-9.086 9.087a.911.911 0 01-1.29 0l-9.088-9.087a.911.911 0 010-1.291l9.087-9.086a.911.911 0 011.29 0zM9.366 8.526a2.556 2.555 0 00-1.238.3 2.105 2.104 0 00-.846.807 2.26 2.26 0 00-.298 1.144H8.35c0-.347.085-.624.262-.833a.906.905 0 01.73-.322c.287 0 .504.09.659.265.153.172.233.411.233.716a1.382 1.382 0 01-.222.707 5.338 5.337 0 01-.674.868l-2.216 2.367v.93h4.699V14.38H8.873l1.558-1.647c.428-.468.728-.878.902-1.228a2.28 2.28 0 00.266-1.036c0-.617-.195-1.097-.587-1.436-.389-.34-.939-.508-1.645-.508zm5.5.096l-2.86 4.513.06.857h2.81v1.485h1.362v-1.485h.778v-1.097h-.78V8.622zm.012 1.855v2.418h-1.513l1.423-2.264z"/></svg>