<svg xmlns="http://www.w3.org/2000/svg" xmlns:xlink="http://www.w3.org/1999/xlink" version="1.1" width="24" height="24" viewBox="0 0 24 24"><path d="M12.797 2.342l8.856 8.8c.46.458.463 1.197.005 1.655l-8.8 8.856a1.167 1.167 0 01-1.654.006l-8.857-8.8a1.167 1.167 0 01-.005-1.656l8.8-8.856a1.167 1.167 0 011.655-.006zm1.02 6.055c-.478 0-.907.103-1.285.309-.377.201-.67.482-.878.839a2.345 2.344 0 00-.308 1.187h1.417c0-.358.09-.647.273-.865.185-.222.437-.332.755-.332.297 0 .524.091.685.273.16.18.239.427.239.742 0 .232-.076.476-.23.734a5.545 5.544 0 01-.698.902l-2.3 2.45v.968h4.873v-1.137h-3.056l1.616-1.704c.443-.486.756-.91.938-1.275.182-.364.274-.722.274-1.074 0-.64-.205-1.138-.611-1.489-.405-.352-.971-.528-1.704-.528zm-3.234.09L7.639 9.54v1.147l1.685-.523v5.438h1.412V8.485z"/></svg>